<?xml version="1.0" encoding="UTF-8"?>
<!-- Generator: visioncortex VTracer 0.6.12 -->
<svg version="1.1" xmlns="http://www.w3.org/2000/svg" width="1243" height="864">

<path d="M0 0 C0.362 3.709 0.358 5.481 -1.793 8.598 C-2.583 9.411 -3.373 10.224 -4.188 11.062 C-5.007 11.917 -5.827 12.772 -6.672 13.652 C-7.44 14.427 -8.208 15.202 -9 16 C-9.485 16.516 -9.485 16.516 -11.938 19.125 C-14 21 -14 21 -16 21 C-16.33 22.32 -16.66 23.64 -17 25 C-19.282 27.739 -21.595 30.374 -24 33 C-25.128 34.289 -26.253 35.58 -27.375 36.875 C-30.006 39.888 -32.683 42.854 -35.375 45.812 C-39.228 50.08 -42.872 54.482 -46.484 58.953 C-49.421 62.509 -52.458 65.972 -55.5 69.438 C-60.134 74.736 -64.472 80.171 -68.633 85.848 C-71.452 89.602 -74.402 93.242 -77.375 96.875 C-85.602 106.939 -93.662 117.12 -101.426 127.547 C-103.457 130.272 -105.497 132.989 -107.543 135.703 C-114.056 144.348 -120.518 153.012 -126.754 161.859 C-128.935 164.909 -131.176 167.908 -133.431 170.902 C-136.081 174.445 -138.665 178.035 -141.25 181.625 C-141.814 182.407 -142.377 183.189 -142.958 183.995 C-144.1 185.58 -145.241 187.166 -146.382 188.752 C-147.848 190.789 -149.317 192.824 -150.785 194.859 C-155.317 201.163 -159.727 207.524 -164.004 214.004 C-166.131 217.197 -168.309 220.35 -170.5 223.5 C-174.748 229.614 -178.887 235.794 -183 242 C-184.291 243.938 -185.583 245.875 -186.875 247.812 C-187.531 248.797 -188.187 249.782 -188.863 250.797 C-190.4 253.101 -191.939 255.402 -193.48 257.703 C-197.848 264.231 -202.177 270.772 -206.332 277.438 C-207.637 279.443 -209.026 281.394 -210.445 283.32 C-213.04 287.058 -215.061 290.792 -217.062 294.875 C-217.713 296.192 -218.364 297.51 -219.035 298.867 C-222.595 306.354 -225.688 313.548 -227.625 321.625 C-227.837 322.503 -228.048 323.382 -228.266 324.286 C-232.948 344.249 -236.665 368.446 -226 387 C-225.01 388.32 -224.02 389.64 -223 391 C-223 391.66 -223 392.32 -223 393 C-222.34 393 -221.68 393 -221 393 C-220.066 394.834 -219.141 396.673 -218.258 398.531 C-215.863 403.232 -212.875 407.582 -210 412 C-208.705 413.998 -207.413 415.998 -206.125 418 C-205.55 418.887 -204.975 419.774 -204.383 420.688 C-203 423 -203 423 -202 426 C-201.34 426 -200.68 426 -200 426 C-200 426.99 -200 427.98 -200 429 C-194.125 426.25 -194.125 426.25 -193 424 C-192.34 424 -191.68 424 -191 424 C-190.331 422.001 -189.665 420.001 -189 418 C-187.645 415.651 -186.219 413.342 -184.75 411.062 C-183.845 409.643 -182.941 408.222 -182.039 406.801 C-181.551 406.033 -181.063 405.266 -180.56 404.475 C-177.697 399.932 -174.913 395.34 -172.125 390.75 C-171.532 389.775 -170.939 388.8 -170.329 387.796 C-166.405 381.335 -162.508 374.859 -158.625 368.375 C-152.68 358.45 -146.684 348.574 -140.375 338.875 C-137.152 333.892 -134.222 328.846 -131.438 323.609 C-129.489 320.072 -127.299 316.717 -125.105 313.328 C-122.389 309.035 -119.79 304.676 -117.188 300.312 C-112.771 292.917 -108.263 285.59 -103.68 278.297 C-98.642 270.251 -93.749 262.116 -88.823 254.001 C-87.023 251.038 -85.219 248.077 -83.414 245.117 C-77.889 236.056 -72.382 226.985 -66.938 217.875 C-59.471 205.392 -51.867 192.986 -44 180.75 C-41.688 177.148 -39.613 173.468 -37.574 169.703 C-35.372 165.922 -32.961 162.283 -30.562 158.625 C-26.983 153.158 -23.632 147.659 -20.59 141.875 C-17.793 136.818 -14.654 131.971 -11.562 127.09 C-9.172 123.274 -6.849 119.425 -4.54 115.56 C-2.03 111.387 0.551 107.259 3.125 103.125 C7.954 95.347 12.71 87.529 17.404 79.669 C21.274 73.194 25.193 66.75 29.125 60.312 C34.145 52.091 39.076 43.826 43.914 35.496 C47.68 29.184 51.105 24.526 57 20 C62.499 18.625 67.622 18.838 73.273 19.074 C77.825 19.176 81.947 18.499 86.414 17.645 C98.454 15.87 98.454 15.87 104.542 17.771 C108.332 21.208 108.452 25.224 108.789 30.086 C109.238 41.746 108.251 53.415 107 65 C107.768 64.931 108.535 64.863 109.326 64.792 C115.385 64.266 121.417 63.801 127.5 63.688 C128.83 63.65 130.161 63.613 131.531 63.574 C135 64 135 64 137.183 65.64 C139.509 68.661 139.511 70.406 139.539 74.191 C139.562 75.383 139.585 76.575 139.609 77.803 C139.615 79.043 139.62 80.284 139.625 81.562 C139.65 84.022 139.684 86.482 139.727 88.941 C139.73 89.486 139.73 89.486 139.745 92.244 C140 95 140 95 142 98 C145.914 98.512 145.914 98.512 150.625 98.688 C152.185 98.753 153.745 98.819 155.352 98.887 C156.556 98.924 157.76 98.961 159 99 C156.216 110.135 148.546 125.131 139.316 131.996 C138.552 132.327 137.788 132.659 137 133 C136.34 132.67 135.68 132.34 135 132 C134.38 127.506 134.037 123.009 133.66 118.488 C133.038 114.259 132.28 111.576 130 108 C125.918 105.279 123.003 105.734 118.125 105.75 C117.332 105.747 117.332 105.747 113.32 105.734 C109.547 105.966 107.318 106.359 104 108 C103.505 108.165 103.505 108.165 101 109 C100.67 110.32 100.34 111.64 100 113 C99.34 113 98.68 113 98 113 C98.06 116.564 98.147 120.124 98.25 123.688 C98.264 124.695 98.278 125.702 98.293 126.74 C98.54 134.222 98.54 134.222 100.859 138.145 C104.307 141.133 107.36 141.16 111.762 141.316 C112.88 141.358 113.998 141.4 115.15 141.443 C116.318 141.483 117.485 141.522 118.688 141.562 C119.866 141.606 121.045 141.649 122.26 141.693 C125.173 141.8 128.086 141.902 131 142 C130.474 146.504 129.381 149.538 126.98 153.371 C126.37 154.358 125.76 155.345 125.131 156.361 C124.81 156.869 124.81 156.869 123.188 159.438 C121.93 161.457 120.674 163.476 119.418 165.496 C119.119 165.975 119.119 165.975 117.603 168.401 C115.656 171.557 113.833 174.777 112 178 C110.025 181.266 108.014 184.508 106 187.75 C105.43 188.67 104.859 189.589 104.272 190.537 C99.056 198.934 93.784 207.294 88.493 215.644 C83.986 222.757 79.491 229.877 75 237 C74.543 237.724 74.086 238.448 73.616 239.193 C68.713 246.968 63.912 254.735 59.57 262.84 C58 265 58 265 54 266 C53.257 268.126 52.529 270.258 51.894 272.419 C50.318 276.969 47.655 280.844 45.062 284.875 C44.489 285.783 43.916 286.692 43.325 287.628 C41.558 290.424 39.779 293.212 38 296 C36.941 297.675 35.884 299.351 34.828 301.027 C32.842 304.18 30.851 307.33 28.855 310.477 C26.966 313.461 25.094 316.455 23.238 319.461 C16.045 331.095 16.045 331.095 12.688 335.375 C10.03 338.96 8.248 342.44 6.336 346.441 C4.489 349.978 2.198 353.105 -0.133 356.336 C-2.836 360.193 -5.246 364.211 -7.691 368.234 C-10.458 372.747 -13.289 377.218 -16.125 381.688 C-19.248 386.612 -22.355 391.536 -25.312 396.562 C-27.141 399.654 -29.092 402.583 -31.188 405.5 C-34.431 410.055 -37.357 414.78 -40.25 419.562 C-44.322 426.292 -48.5 432.93 -52.795 439.52 C-56.326 444.943 -59.8 450.4 -63.25 455.875 C-63.506 456.281 -63.506 456.281 -64.803 458.338 C-65.777 459.884 -66.751 461.43 -67.725 462.976 C-74.705 474.057 -81.851 485.028 -89 496 C-89.588 496.903 -90.177 497.807 -90.783 498.737 C-96.698 507.816 -102.618 516.892 -108.555 525.957 C-109.316 527.12 -110.078 528.283 -110.862 529.482 C-112.334 531.729 -113.806 533.975 -115.278 536.221 C-115.952 537.25 -116.626 538.28 -117.32 539.34 C-117.638 539.824 -117.638 539.824 -119.243 542.273 C-120.833 544.741 -122.356 547.238 -123.867 549.754 C-124.571 550.825 -125.275 551.896 -126 553 C-126.66 553 -127.32 553 -128 553 C-128.33 554.32 -128.66 555.64 -129 557 C-130.72 560.705 -132.689 564.279 -134.625 567.875 C-135.134 568.856 -135.643 569.837 -136.168 570.848 C-136.682 571.803 -137.197 572.758 -137.727 573.742 C-138.186 574.607 -138.646 575.472 -139.12 576.363 C-142.341 580.88 -145.224 584.477 -150.921 585.55 C-154.549 585.779 -158.127 585.805 -161.762 585.762 C-162.432 585.763 -162.432 585.763 -165.825 585.772 C-168.666 585.772 -171.506 585.756 -174.346 585.727 C-178.628 585.688 -182.907 585.706 -187.189 585.732 C-206.288 585.728 -222.502 584.013 -240 576 C-240.67 575.732 -240.67 575.732 -244.062 574.375 C-244.547 574.148 -244.547 574.148 -247 573 C-247 572.34 -247 571.68 -247 571 C-247.99 570.67 -248.98 570.34 -250 570 C-254 565.657 -254 565.657 -254 562 C-254.66 562 -255.32 562 -256 562 C-257.654 559.908 -259.223 557.749 -260.75 555.562 C-261.651 554.273 -262.552 552.984 -263.48 551.656 C-264.312 550.45 -265.143 549.243 -266 548 C-266.553 547.206 -267.106 546.412 -267.676 545.594 C-270.792 541.03 -273.615 536.313 -276.438 531.562 C-279.552 526.327 -282.812 521.304 -286.359 516.355 C-294 505.386 -294 505.386 -294 502 C-294.99 501.67 -295.98 501.34 -297 501 C-298 498.333 -299 495.667 -300 493 C-300.99 492.67 -301.98 492.34 -303 492 C-302.979 493.444 -302.959 494.888 -302.938 496.375 C-302.889 499.751 -303.104 502.932 -303.48 506.297 C-306.205 532.518 -306.423 560.624 -290.055 582.613 C-285.884 587.61 -281.593 590.737 -276 594 C-275.395 594.623 -274.791 595.245 -274.168 595.887 C-263.11 606.666 -247.639 609.904 -232.895 611.5 C-226.916 612.268 -220.441 613.279 -215 616 C-215 616.99 -215 617.98 -215 619 C-217.326 619.38 -219.662 619.703 -222 620 C-223.042 620.463 -224.083 620.926 -225.156 621.402 C-229.509 623.212 -233.831 624.186 -238.438 625.062 C-240.045 625.383 -241.652 625.704 -243.309 626.035 C-256.901 628.438 -270.2 629.34 -284 629.312 C-285.606 629.329 -287.212 629.345 -288.867 629.361 C-313.811 629.371 -341.417 623.077 -359.859 605.215 C-360.566 604.484 -361.272 603.753 -362 603 C-362.322 602.671 -362.322 602.671 -363.953 601.004 C-368.46 596.135 -371.736 590.75 -375 585 C-375.508 584.258 -376.016 583.515 -376.539 582.75 C-378.525 579.012 -379.246 575.322 -380.125 571.188 C-380.458 569.655 -380.79 568.122 -381.133 566.543 C-387.965 530.75 -377.914 495.142 -363.184 462.648 C-361.939 459.864 -360.744 457.063 -359.559 454.254 C-354.69 442.749 -349.421 431.617 -343.439 420.651 C-341.813 417.655 -340.21 414.647 -338.609 411.637 C-330.085 395.641 -321.306 379.909 -311.402 364.715 C-309.641 361.991 -307.905 359.258 -306.191 356.504 C-300.422 347.242 -294.44 338.214 -288.086 329.344 C-284.165 323.86 -280.391 318.274 -276.627 312.682 C-273.474 308.031 -270.161 303.558 -266.685 299.144 C-264.22 296.008 -261.83 292.817 -259.438 289.625 C-258.934 288.954 -258.431 288.284 -257.913 287.593 C-255.073 283.8 -252.257 279.992 -249.465 276.164 C-243.639 268.184 -237.773 260.345 -231.359 252.82 C-227.945 248.739 -224.757 244.495 -221.535 240.262 C-218.117 235.863 -214.539 231.609 -210.934 227.363 C-209 225 -209 225 -208 223 C-207.34 223 -206.68 223 -206 223 C-205.34 221.68 -204.68 220.36 -204 219 C-199.834 213.487 -195.294 208.278 -190.625 203.188 C-187.104 199.33 -183.876 195.323 -180.688 191.188 C-176.026 185.177 -171.041 179.615 -165.832 174.078 C-163.289 171.314 -160.907 168.495 -158.562 165.562 C-153.983 159.856 -149.01 154.555 -144.008 149.223 C-140.582 145.552 -137.289 141.794 -134 138 C-128.563 131.905 -123.065 125.865 -117.555 119.836 C-115.569 117.631 -113.613 115.409 -111.668 113.168 C-108.024 108.994 -104.25 104.957 -100.438 100.938 C-99.023 99.442 -97.609 97.946 -96.195 96.449 C-95.844 96.077 -95.844 96.077 -94.063 94.193 C-91.542 91.513 -89.041 88.815 -86.541 86.115 C-78.713 77.669 -70.614 69.53 -62.41 61.449 C-59.23 58.217 -56.267 54.814 -53.281 51.402 C-51.003 49.003 -48.587 47.054 -46 45 C-44.84 43.761 -43.713 42.49 -42.625 41.188 C-38.256 36.092 -33.633 31.394 -28.523 27.031 C-22.749 22.004 -17.439 16.507 -12.062 11.062 C-9.993 8.968 -7.922 6.875 -5.848 4.785 C-5.394 4.326 -5.394 4.326 -3.098 2 C-1 0 -1 0 0 0 Z " fill="#16EA28" transform="translate(863,196)"/>
<path d="M0 0 C9.429 5.705 16.729 13.648 21.875 23.375 C25.146 29.548 29.541 35.095 34.523 39.984 C36.962 42.473 38.654 45.343 40.547 48.254 C43.628 52.627 47.149 56.613 50.633 60.668 C56.005 66.931 61.183 73.351 66.312 79.812 C69.45 83.75 72.677 87.602 75.938 91.438 C79.364 95.476 82.778 99.52 86.125 103.625 C86.768 104.413 87.411 105.2 88.074 106.012 C89.438 107.938 89.438 107.938 89.438 109.938 C90.098 109.938 90.757 109.938 91.438 109.938 C92.952 111.903 94.463 113.873 95.902 115.895 C97.438 117.938 97.438 117.938 100.438 120.938 C101.648 122.567 102.832 124.215 104 125.875 C107.754 131.094 111.762 136.029 115.91 140.938 C119.138 144.769 122.285 148.663 125.43 152.562 C127.438 154.938 127.438 154.938 129.695 157.125 C131.438 158.938 131.438 158.938 131.438 160.938 C132.098 160.938 132.757 160.938 133.438 160.938 C135.131 163.587 136.796 166.255 138.438 168.938 C138.933 169.433 138.933 169.433 141.438 171.938 C142.098 172.597 142.757 173.257 143.438 173.938 C150.867 165.507 157.826 156.906 164.508 147.871 C168.117 143.025 171.855 138.29 175.602 133.551 C178.685 129.622 181.723 125.66 184.75 121.688 C189.216 115.827 193.717 109.996 198.25 104.188 C204.173 96.595 210.022 88.949 215.845 81.28 C219.482 76.492 223.144 71.726 226.841 66.985 C233.098 58.96 239.259 50.865 245.348 42.711 C247.224 40.221 249.133 37.762 251.062 35.312 C255.935 29.052 260.62 22.863 264.062 15.688 C267.447 8.676 271.256 4.234 278.438 0.938 C285.748 -0.842 292.459 -1.323 299.959 -1.214 C300.514 -1.21 300.514 -1.21 303.322 -1.19 C306.987 -1.161 310.651 -1.118 314.316 -1.074 C316.923 -1.05 319.53 -1.028 322.137 -1.006 C329.031 -0.945 335.926 -0.871 342.82 -0.795 C348.269 -0.736 353.719 -0.688 359.168 -0.639 C395.595 -0.315 432.016 0.238 468.438 0.938 C467.812 6.594 467.812 6.594 464.438 9.688 C463.942 10.059 463.942 10.059 461.438 11.938 C461.107 12.597 460.778 13.257 460.438 13.938 C459.778 13.938 459.117 13.938 458.438 13.938 C457.778 15.257 457.117 16.577 456.438 17.938 C454.776 19.895 453.061 21.807 451.312 23.688 C450.325 24.75 449.338 25.812 448.32 26.906 C445.354 30.025 442.326 33.067 439.258 36.086 C437.441 37.934 435.748 39.845 434.062 41.812 C430.534 45.921 426.706 49.684 422.855 53.488 C420.131 56.248 417.602 59.129 415.082 62.074 C412.349 65.171 409.357 68.018 406.438 70.938 C405.26 72.262 404.094 73.595 402.938 74.938 C399.616 78.793 396.036 82.339 392.438 85.938 C390.769 87.831 389.101 89.725 387.453 91.637 C384.992 94.446 382.467 97.19 379.938 99.938 C376.346 103.842 372.806 107.777 369.336 111.789 C365.86 115.723 362.268 119.553 358.695 123.398 C356.438 125.938 356.438 125.938 355.438 127.938 C354.778 127.938 354.117 127.938 353.438 127.938 C352.778 129.257 352.117 130.577 351.438 131.938 C349.08 134.572 346.699 137.141 344.25 139.688 C339.73 144.419 335.289 149.189 331.003 154.134 C329.011 156.429 326.977 158.685 324.938 160.938 C323.437 162.604 321.937 164.27 320.438 165.938 C319.793 166.653 319.148 167.368 318.484 168.105 C315.753 171.176 313.277 174.17 310.938 177.562 C308.438 180.938 308.438 180.938 305.188 183.688 C301.191 187.151 298.138 190.853 294.855 194.977 C291.534 199.044 287.981 202.878 284.406 206.723 C282.438 208.938 282.438 208.938 281.438 210.938 C280.777 210.938 280.118 210.938 279.438 210.938 C278.777 212.257 278.118 213.577 277.438 214.938 C276.125 216.494 274.765 218.012 273.375 219.5 C268.506 224.808 263.964 230.338 259.438 235.938 C256.746 239.206 254.017 242.415 251.219 245.594 C247.582 249.745 244.059 253.98 240.562 258.25 C239.953 258.992 239.344 259.734 238.716 260.499 C236.955 262.644 235.196 264.79 233.438 266.938 C232.583 267.98 231.728 269.023 230.848 270.098 C228.709 272.71 226.573 275.323 224.438 277.938 C222.938 279.771 221.438 281.604 219.938 283.438 C219.196 284.344 218.455 285.25 217.691 286.184 C216.18 288.031 214.666 289.877 213.152 291.723 C208.883 296.93 204.648 302.162 200.453 307.43 C198.39 309.996 196.29 312.529 194.188 315.062 C188.973 321.425 184.074 328.018 179.167 334.619 C177.268 337.165 175.356 339.7 173.441 342.234 C173.104 342.682 173.104 342.682 171.395 344.948 C170.073 346.699 168.75 348.45 167.425 350.199 C165.018 353.396 162.687 356.521 160.629 359.957 C159.438 361.938 159.438 361.938 157.438 362.938 C156.284 365.02 155.134 367.105 154.047 369.223 C152.247 372.259 150.154 375.008 148.016 377.812 C145.511 381.185 143.266 384.714 141 388.25 C140.52 388.999 140.039 389.749 139.545 390.521 C138.175 392.659 136.806 394.798 135.438 396.938 C134.829 397.864 134.221 398.791 133.594 399.746 C129.05 406.706 124.966 413.92 120.875 421.151 C117.918 426.377 114.896 431.556 111.792 436.696 C108.389 442.328 105.445 447.736 103.188 453.938 C101.173 459.416 98.625 464.46 95.812 469.562 C92.789 475.136 90.497 480.153 89.109 486.32 C88.053 490.434 86.325 494.233 84.637 498.121 C83.573 500.62 82.641 503.123 81.75 505.688 C81.317 506.76 80.884 507.832 80.438 508.938 C79.777 508.938 79.118 508.938 78.438 508.938 C78.094 511.098 78.094 511.098 77.938 514 C77.686 518.588 76.768 522.54 75.438 526.938 C68.611 553.268 68.611 553.268 66.312 566 C66.024 567.299 65.735 568.599 65.438 569.938 C64.777 569.938 64.118 569.938 63.438 569.938 C59.811 565.581 59.961 560.909 59.875 555.5 C59.729 549.839 59.398 544.526 58.43 538.95 C56.992 529.048 57.19 519.15 57.242 509.172 C57.246 507.004 57.249 504.836 57.251 502.668 C57.257 498.026 57.27 493.385 57.287 488.743 C57.314 481.401 57.326 474.06 57.335 466.718 C57.358 451.146 57.397 435.573 57.438 420 C57.482 403.161 57.523 386.322 57.544 369.483 C57.554 362.186 57.574 354.889 57.601 347.591 C57.616 343.057 57.623 338.522 57.627 333.988 C57.631 331.886 57.638 329.785 57.649 327.683 C57.663 324.814 57.666 321.945 57.665 319.075 C57.669 317.47 57.673 315.865 57.678 314.211 C57.337 308.154 56.783 304.283 52.438 299.938 C52.107 298.618 51.778 297.298 51.438 295.938 C50.118 295.277 48.798 294.618 47.438 293.938 C45.749 292.293 44.084 290.624 42.438 288.938 C41.447 288.113 40.457 287.288 39.438 286.438 C32.354 280.535 32.354 280.535 30.117 276.637 C27.472 272.387 23.948 268.988 20.52 265.363 C18.438 262.938 18.438 262.938 18.438 260.938 C17.778 260.938 17.118 260.938 16.438 260.938 C14.978 259.154 13.595 257.308 12.25 255.438 C7.675 249.198 2.916 243.416 -2.562 237.938 C-3.687 236.558 -4.789 235.16 -5.875 233.75 C-6.487 232.957 -7.1 232.164 -7.73 231.348 C-9.406 229.144 -11.049 226.919 -12.688 224.688 C-15.162 221.459 -17.662 218.767 -20.562 215.938 C-27.562 208.396 -27.562 208.396 -27.562 205.938 C-28.222 205.938 -28.882 205.938 -29.562 205.938 C-29.562 205.278 -29.562 204.618 -29.562 203.938 C-30.222 203.938 -30.882 203.938 -31.562 203.938 C-32.93 202.149 -34.288 200.353 -35.609 198.531 C-40.619 191.879 -46.219 185.661 -51.648 179.352 C-52.631 178.204 -53.613 177.057 -54.625 175.875 C-55.523 174.832 -56.422 173.789 -57.348 172.715 C-59.562 169.938 -59.562 169.938 -61.562 165.938 C-62.553 165.607 -63.543 165.278 -64.562 164.938 C-69.562 158.542 -69.562 158.542 -69.562 155.938 C-70.222 155.938 -70.882 155.938 -71.562 155.938 C-73.156 154.137 -73.156 154.137 -75.062 151.625 C-78.069 147.765 -81.18 144.094 -84.5 140.5 C-88.592 136.052 -92.462 131.479 -96.262 126.781 C-98.779 123.67 -101.321 120.581 -103.875 117.5 C-104.676 116.532 -105.476 115.564 -106.301 114.566 C-108.562 111.938 -108.562 111.938 -110.633 109.867 C-112.648 107.852 -114.372 105.745 -116.125 103.5 C-119.36 99.409 -122.682 95.409 -126.062 91.438 C-130.076 86.718 -133.999 81.941 -137.852 77.09 C-143.439 70.061 -143.439 70.061 -146.5 67 C-150.655 62.845 -154.315 58.29 -157.875 53.625 C-161.129 49.398 -164.646 45.476 -168.242 41.539 C-170.598 38.898 -172.838 36.19 -175.062 33.438 C-180.126 27.187 -185.283 20.912 -191.25 15.5 C-194.841 11.521 -197.381 6.826 -199.562 1.938 C-197.363 -0.262 -192.08 0.689 -189.012 0.64 C-188.508 0.631 -188.508 0.631 -185.956 0.581 C-182.577 0.516 -179.199 0.459 -175.82 0.402 C-173.446 0.359 -171.072 0.316 -168.698 0.272 C-162.34 0.156 -155.982 0.048 -149.624 -0.058 C-145.706 -0.125 -141.789 -0.193 -137.872 -0.262 C-105.968 -0.821 -74.073 -1.308 -42.163 -1.076 C-41.089 -1.07 -40.016 -1.063 -38.91 -1.056 C-36.982 -1.043 -35.054 -1.025 -33.126 -1 C-1.581 -0.752 -1.581 -0.752 0 0 Z " fill="#10EAE9" transform="translate(365.5625,181.0625)"/>
<path d="M0 0 C17.49 0 34.98 0 53 0 C53.062 8.559 53.124 17.119 53.188 25.938 C53.201 27.29 53.201 27.29 53.27 34.136 C53.279 36.267 53.287 38.397 53.293 40.527 C53.308 41.645 53.324 42.763 53.339 43.914 C53.34 46.612 53.188 49.309 53 52 C52.01 52.33 51.02 52.66 50 53 C50 53.66 50 54.32 50 55 C43.04 55.074 36.08 55.128 29.12 55.165 C26.75 55.18 24.38 55.2 22.01 55.226 C18.612 55.263 15.215 55.28 11.816 55.293 C10.75 55.308 9.683 55.324 8.584 55.34 C6.054 55.34 3.524 55.186 1 55 C-0.001 51.996 -0.121 50.023 -0.114 46.886 C-0.113 45.831 -0.113 44.775 -0.113 43.688 C-0.108 42.58 -0.103 41.473 -0.098 40.332 C-0.097 39.313 -0.096 38.294 -0.095 37.244 C-0.089 33.433 -0.075 29.623 -0.062 25.812 C-0.042 17.294 -0.021 8.776 0 0 Z " fill="#19E62B" transform="translate(973,141)"/>
<path d="M0 0 C13.2 0 26.4 0 40 0 C40 13.53 40 27.06 40 41 C26.8 41 13.6 41 0 41 C0 27.47 0 13.94 0 0 Z " fill="#22E434" transform="translate(1009,216)"/>
<path d="M0 0 C1.294 -0.001 2.588 -0.003 3.922 -0.004 C4.599 -0.002 4.599 -0.002 8.023 0.008 C9.385 0.004 10.746 0 12.148 -0.004 C13.44 -0.003 14.732 -0.001 16.062 0 C17.253 0.001 18.444 0.002 19.67 0.003 C22.398 0.133 22.398 0.133 23.398 1.133 C23.499 3.412 23.529 5.695 23.531 7.977 C23.532 8.672 23.532 8.672 23.535 12.191 C23.531 13.657 23.527 15.123 23.523 16.633 C23.525 17.366 23.525 17.366 23.535 21.074 C23.534 22.465 23.533 23.856 23.531 25.289 C23.53 26.576 23.529 27.863 23.528 29.189 C23.398 32.133 23.398 32.133 22.398 33.133 C20.046 33.233 17.691 33.264 15.336 33.266 C13.9 33.267 12.464 33.268 10.984 33.27 C9.471 33.266 7.958 33.262 6.398 33.258 C5.642 33.26 5.642 33.26 1.812 33.27 C1.094 33.269 1.094 33.269 -2.539 33.266 C-3.204 33.265 -3.204 33.265 -6.566 33.262 C-9.602 33.133 -9.602 33.133 -10.602 32.133 C-10.702 30.011 -10.732 27.886 -10.734 25.762 C-10.736 24.466 -10.737 23.169 -10.738 21.834 C-10.734 20.468 -10.731 19.102 -10.727 17.695 C-10.73 16.333 -10.734 14.972 -10.738 13.568 C-10.737 12.271 -10.736 10.973 -10.734 9.637 C-10.733 8.439 -10.732 7.241 -10.731 6.006 C-10.602 3.133 -10.602 3.133 -9.602 1.133 C-6.202 -0 -3.583 0.003 0 0 Z " fill="#1CE531" transform="translate(1072.6015625,165.8671875)"/>
<path d="M0 0 C3.073 -0.021 6.146 -0.041 9.312 -0.062 C10.277 -0.072 11.242 -0.081 12.236 -0.09 C15.726 -0.101 18.667 -0.111 22 1 C22.341 3.225 22.341 3.225 22.293 6.129 C22.283 7.163 22.274 8.198 22.264 9.264 C22.239 10.352 22.213 11.441 22.188 12.562 C22.181 13.109 22.181 13.109 22.146 15.873 C22.111 18.582 22.057 21.291 22 24 C14.74 24 7.48 24 0 24 C0 16.08 0 8.16 0 0 Z " fill="#38DE4F" transform="translate(1036,115)"/>
<path d="M0 0 C1.805 -0.021 1.805 -0.021 10.938 -0.125 C12.077 -0.143 13.216 -0.161 14.39 -0.18 C16.928 -0.194 19.465 -0.101 22 0 C23.762 3.523 23.142 7.623 23.125 11.5 C23.127 11.94 23.127 11.94 23.137 14.168 C23.127 20.747 23.127 20.747 22 23 C18.28 23.148 14.654 23.184 10.938 23.125 C7.328 23.084 3.719 23.043 0 23 C0 15.41 0 7.82 0 0 Z " fill="#28DD3E" transform="translate(1069,81)"/>
<path d="M0 0 C6.93 0 13.86 0 21 0 C21 7.59 21 15.18 21 23 C14.07 23 7.14 23 0 23 C0 15.41 0 7.82 0 0 Z " fill="#2BDE3F" transform="translate(1055,272)"/>
<path d="M0 0 C6.6 0 13.2 0 20 0 C20 6.6 20 13.2 20 20 C13.4 20 6.8 20 0 20 C0 13.4 0 6.8 0 0 Z " fill="#35DE4B" transform="translate(926,173)"/>
<path d="M0 0 C0 4.274 -2.002 5.922 -4.625 9.25 C-5.543 10.417 -6.461 11.583 -7.406 12.785 C-10.203 16.252 -13.08 19.636 -16 23 C-18.692 26.314 -21.345 29.657 -24 33 C-28.93 39.189 -33.9 45.342 -38.922 51.457 C-39.608 52.296 -40.293 53.135 -41 54 C-41.648 54.793 -42.297 55.586 -42.965 56.402 C-45.352 59.449 -47.581 62.587 -49.812 65.75 C-54.361 72.143 -59.045 78.369 -63.996 84.453 C-68.904 90.502 -73.463 96.618 -77.375 103.375 C-79.295 106.477 -81.451 109.305 -83.688 112.188 C-84.569 113.326 -85.451 114.464 -86.359 115.637 C-89.302 119.385 -92.286 123.097 -95.309 126.781 C-97.074 129.097 -98.525 131.492 -100 134 C-101.667 136.333 -103.333 138.667 -105 141 C-106.006 142.663 -107.007 144.329 -108 146 C-108.495 146.66 -108.495 146.66 -111 150 C-111.237 150.402 -111.237 150.402 -112.438 152.438 C-114.103 155.168 -115.981 157.519 -118 160 C-119.044 161.415 -120.086 162.832 -121.125 164.25 C-124 168 -124 168 -126 169 C-117.614 152.227 -105.429 137.081 -94.416 121.946 C-93.239 120.328 -92.064 118.707 -90.891 117.086 C-85.547 109.71 -80.134 102.384 -74.727 95.055 C-72.258 91.709 -69.795 88.36 -67.336 85.008 C-60.665 75.92 -53.936 66.889 -47 58 C-46.141 56.897 -45.283 55.793 -44.398 54.656 C-38.937 47.668 -33.382 40.763 -27.769 33.896 C-24.413 29.778 -21.146 25.607 -17.938 21.375 C-12.36 14.055 -6.514 6.514 0 0 Z " fill="#B7FABF" transform="translate(815,256)"/>
<path d="M0 0 C0.33 0.33 0.33 0.33 2 2 C0.558 4.714 -0.935 7.195 -2.625 9.75 C-3.077 10.454 -3.53 11.158 -3.996 11.883 C-5.317 13.931 -6.658 15.966 -8 18 C-8.358 18.545 -8.358 18.545 -10.168 21.301 C-11.595 23.403 -13.123 25.436 -14.688 27.438 C-17.552 31.202 -19.921 35.171 -22.312 39.25 C-25.164 44.087 -28.119 48.628 -31.562 53.062 C-35.576 58.259 -38.783 63.675 -41.957 69.414 C-44.071 73.124 -46.345 76.681 -48.688 80.25 C-51.294 84.23 -53.632 88.119 -55.625 92.438 C-57.959 97.349 -60.901 100.433 -65 104 C-68.243 105.081 -70.645 105.146 -74.057 105.177 C-74.681 105.183 -74.681 105.183 -77.841 105.216 C-79.194 105.223 -80.547 105.231 -81.941 105.238 C-83.334 105.246 -84.727 105.254 -86.161 105.263 C-89.114 105.277 -92.068 105.287 -95.021 105.295 C-99.52 105.312 -104.019 105.356 -108.518 105.4 C-111.388 105.411 -114.258 105.419 -117.129 105.426 C-118.468 105.443 -119.807 105.461 -121.186 105.479 C-129.127 105.461 -134.835 104.473 -142 101 C-138 100 -138 100 -134.647 100.914 C-128.29 102.4 -122.156 102.345 -115.648 102.371 C-114.276 102.38 -112.903 102.389 -111.488 102.398 C-108.596 102.413 -105.703 102.422 -102.81 102.426 C-98.383 102.437 -93.958 102.487 -89.531 102.537 C-86.716 102.547 -83.901 102.554 -81.086 102.559 C-79.764 102.578 -78.442 102.598 -77.08 102.618 C-67.954 102.573 -67.954 102.573 -63.316 99.788 C-61.164 97.198 -59.427 94.814 -57.859 91.84 C-57.603 91.361 -57.603 91.361 -56.305 88.936 C-55.792 87.946 -55.279 86.957 -54.75 85.938 C-54.221 84.944 -53.693 83.951 -53.148 82.928 C-51.051 78.974 -49.002 75.003 -47 71 C-46.34 71 -45.68 71 -45 71 C-44.31 69.343 -43.649 67.674 -43 66 C-41.746 63.93 -40.442 61.889 -39.105 59.871 C-38.321 58.681 -37.537 57.491 -36.729 56.265 C-35.89 55.002 -35.051 53.739 -34.188 52.438 C-32.452 49.806 -30.716 47.175 -28.98 44.543 C-28.129 43.254 -27.277 41.966 -26.4 40.638 C-23.245 35.856 -20.118 31.056 -17 26.25 C-16.746 25.859 -16.746 25.859 -15.461 23.88 C-10.298 15.926 -5.148 7.964 0 0 Z " fill="#B8FBC0" transform="translate(782,678)"/>
<path d="M0 0 C0.64 -0.015 0.64 -0.015 3.877 -0.088 C13.121 -0.15 19.857 1.092 27.688 6.312 C27.357 6.972 27.028 7.632 26.688 8.312 C26.038 7.9 26.038 7.9 22.75 5.812 C14.775 1.779 5.289 2.37 -3.363 3.826 C-8.451 4.453 -13.438 4.416 -18.559 4.375 C-20.837 4.366 -23.116 4.358 -25.395 4.35 C-26.592 4.343 -27.789 4.337 -29.023 4.331 C-48.336 4.236 -67.63 4.318 -86.938 4.812 C-115.726 5.543 -144.517 5.405 -173.312 5.312 C-172.982 4.653 -172.653 3.993 -172.312 3.312 C-169.143 3.101 -169.143 3.101 -164.844 3.152 C-163.256 3.164 -161.669 3.176 -160.033 3.188 C-159.608 3.193 -159.608 3.193 -157.455 3.219 C-152.992 3.272 -148.529 3.291 -144.066 3.309 C-143.16 3.313 -142.254 3.316 -141.32 3.321 C-131.54 3.346 -121.776 3.045 -112.004 2.668 C-104.625 2.395 -97.259 2.288 -89.875 2.309 C-78.902 2.34 -67.939 2.174 -56.969 1.94 C-53.852 1.875 -50.736 1.815 -47.619 1.756 C-37.983 1.562 -28.398 1.248 -18.783 0.537 C-12.525 0.132 -6.27 0.048 0 0 Z " fill="#B5FBFB" transform="translate(343.3125,176.6875)"/>
<path d="M0 0 C1.149 -0.003 2.298 -0.007 3.482 -0.01 C5.914 -0.015 8.346 -0.017 10.778 -0.017 C14.515 -0.02 18.253 -0.038 21.99 -0.057 C24.348 -0.06 26.705 -0.062 29.062 -0.062 C29.626 -0.066 29.626 -0.066 32.475 -0.084 C35.139 -0.076 37.803 0.035 40.465 0.168 C41.747 2.733 41.592 4.557 41.594 7.428 C41.597 8.526 41.601 9.624 41.604 10.755 C41.602 11.944 41.6 13.134 41.598 14.359 C41.599 15.575 41.6 16.791 41.601 18.043 C41.601 20.616 41.599 23.189 41.595 25.762 C41.59 29.717 41.595 33.672 41.602 37.627 C41.601 40.121 41.6 42.615 41.598 45.109 C41.6 46.301 41.602 47.493 41.604 48.72 C41.602 49.268 41.602 49.268 41.594 52.037 C41.593 53.006 41.593 53.975 41.592 54.973 C41.465 57.168 41.465 57.168 40.465 58.168 C34.433 59.142 28.478 59.315 22.383 59.301 C21.447 59.302 20.511 59.303 19.546 59.304 C17.582 59.304 15.619 59.303 13.655 59.298 C10.644 59.293 7.634 59.298 4.623 59.305 C2.71 59.304 0.796 59.303 -1.117 59.301 C-2.017 59.303 -2.917 59.305 -3.844 59.307 C-7.313 59.294 -10.222 59.272 -13.535 58.168 C-13.909 55.891 -13.909 55.891 -13.907 52.838 C-13.914 51.7 -13.92 50.562 -13.926 49.39 C-13.917 48.151 -13.908 46.913 -13.898 45.637 C-13.899 44.375 -13.899 43.114 -13.9 41.814 C-13.898 39.141 -13.888 36.468 -13.871 33.794 C-13.848 29.686 -13.851 25.578 -13.857 21.469 C-13.852 18.879 -13.845 16.289 -13.836 13.699 C-13.837 12.461 -13.838 11.222 -13.839 9.946 C-13.829 8.808 -13.82 7.67 -13.81 6.498 C-13.805 5.491 -13.801 4.483 -13.796 3.445 C-13.71 2.694 -13.624 1.942 -13.535 1.168 C-9.548 -0.826 -4.413 0.004 0 0 Z M-12.535 2.168 C-12.556 10.686 -12.576 19.204 -12.598 27.98 C-12.607 30.668 -12.616 33.355 -12.625 36.124 C-12.628 38.25 -12.631 40.375 -12.633 42.5 C-12.638 43.607 -12.643 44.715 -12.648 45.856 C-12.648 46.911 -12.649 47.967 -12.649 49.054 C-12.651 49.971 -12.653 50.888 -12.655 51.833 C-12.535 54.168 -12.535 54.168 -11.535 57.168 C-7.874 57.438 -4.381 57.514 -0.719 57.461 C-0.176 57.459 -0.176 57.459 2.573 57.448 C6.058 57.431 9.542 57.394 13.027 57.355 C15.383 57.34 17.74 57.327 20.096 57.314 C25.886 57.281 31.675 57.229 37.465 57.168 C37.465 56.508 37.465 55.848 37.465 55.168 C38.455 54.838 39.445 54.508 40.465 54.168 C40.735 50.292 40.811 46.571 40.758 42.695 C40.755 41.674 40.752 40.653 40.749 39.601 C40.733 35.769 40.691 31.937 40.652 28.105 C40.59 19.546 40.529 10.987 40.465 2.168 C22.975 2.168 5.485 2.168 -12.535 2.168 Z " fill="#A0F1AA" transform="translate(985.53515625,138.83203125)"/>
<path d="M0 0 C0.66 0 1.32 0 2 0 C0.507 4.42 -1.803 7.617 -4.625 11.312 C-9.723 18.152 -14.528 25.146 -19.25 32.25 C-19.58 32.746 -19.58 32.746 -21.252 35.259 C-25.02 40.945 -28.72 46.669 -32.37 52.432 C-33.839 54.747 -35.324 57.051 -36.816 59.352 C-44.545 71.339 -51.54 83.679 -58.428 96.165 C-59.805 98.648 -61.198 101.12 -62.605 103.586 C-67.116 111.488 -71.309 119.481 -75.273 127.672 C-77 131 -77 131 -80 135 C-79.519 129.452 -77.199 125.334 -74.438 120.625 C-70.272 113.35 -66.439 106.002 -62.789 98.453 C-61.062 95.12 -59.102 92.104 -57 89 C-55.994 86.669 -54.995 84.335 -54 82 C-51.044 75.935 -47.723 70.503 -43.562 65.188 C-39.285 59.689 -36.304 53.962 -33.41 47.641 C-32.945 46.769 -32.479 45.898 -32 45 C-31.34 45 -30.68 45 -30 45 C-29.307 43.344 -28.646 41.675 -28 40 C-26.963 38.386 -25.877 36.803 -24.75 35.25 C-20.716 29.61 -16.693 23.962 -13.25 17.938 C-12.837 17.298 -12.425 16.659 -12 16 C-11.34 16 -10.68 16 -10 16 C-9.34 14.68 -8.68 13.36 -8 12 C-7.016 10.283 -6.015 8.575 -5 6.875 C-4.484 6.006 -3.969 5.137 -3.438 4.242 C-2 2 -2 2 0 0 Z " fill="#B9FBC1" transform="translate(589,502)"/>
<path d="M0 0 C0.33 0.66 0.66 1.32 1 2 C0.34 1.67 -0.32 1.34 -1 1 C-0.67 0.67 -0.34 0.34 0 0 Z M-3 1 C-2.67 1.33 -2.67 1.33 -1 3 C-2.273 5.066 -2.273 5.066 -4.375 7.562 C-5.127 8.462 -5.878 9.362 -6.652 10.289 C-9.376 13.434 -12.134 16.545 -14.918 19.637 C-19.454 24.785 -23.727 30.158 -28.012 35.516 C-34.367 43.457 -40.884 51.249 -47.52 58.957 C-49.892 61.868 -51.943 64.862 -54 68 C-56.541 71.049 -59.127 74.042 -61.801 76.977 C-64.708 80.201 -67.037 83.066 -69.188 86.875 C-71 90 -71 90 -75 92 C-73.679 88.266 -72.076 85.552 -69.562 82.5 C-68.855 81.636 -68.147 80.773 -67.418 79.883 C-63.808 75.578 -60.164 71.302 -56.523 67.023 C-54.615 64.737 -52.787 62.383 -51 60 C-47.425 55.234 -43.579 50.744 -39.715 46.211 C-36.835 42.805 -34.05 39.339 -31.281 35.844 C-28.289 32.113 -25.236 28.434 -22.188 24.75 C-16.689 18.1 -11.312 11.372 -6.012 4.562 C-4 2 -4 2 -3 1 Z M-76 92 C-75.34 92.66 -74.68 93.32 -74 94 C-77.38 100.057 -82.638 104.733 -88 109 C-86.1 105.199 -83.999 102.188 -81.438 98.812 C-80.632 97.746 -79.826 96.68 -78.996 95.582 C-77 93 -77 93 -76 92 Z " fill="#B7FBFB" transform="translate(620,424)"/>
<path d="M0 0 C0.165 0.33 0.165 0.33 1 2 C-0.222 4.321 -1.557 6.582 -2.938 8.812 C-3.774 10.174 -4.611 11.535 -5.473 12.938 C-6.307 14.278 -7.141 15.619 -8 17 C-9.292 19.104 -10.584 21.208 -11.875 23.312 C-12.526 24.367 -13.177 25.421 -13.848 26.508 C-16.822 31.334 -19.777 36.172 -22.731 41.011 C-25.024 44.767 -27.319 48.522 -29.621 52.273 C-35.572 61.979 -41.44 71.732 -47.283 81.503 C-52.097 89.536 -56.997 97.513 -61.964 105.452 C-64.128 108.919 -66.171 112.342 -68 116 C-68.66 116 -69.32 116 -70 116 C-70.66 117.32 -71.32 118.64 -72 120 C-74.625 120.75 -74.625 120.75 -77 121 C-72.25 115.125 -72.25 115.125 -70 114 C-69.03 112.364 -68.123 110.69 -67.25 109 C-64.461 103.749 -61.348 98.911 -58 94 C-57.711 93.515 -57.711 93.515 -56.25 91.062 C-55 89 -55 89 -53 87 C-52.716 86.283 -52.433 85.567 -52.141 84.828 C-48.593 76.032 -42.709 67.925 -37.391 60.094 C-34.164 55.236 -31.25 50.178 -28.348 45.121 C-24.731 38.831 -20.913 32.765 -16.797 26.789 C-15 24 -15 24 -13.516 21.027 C-11.9 17.801 -10.031 14.918 -8 11.938 C-5.558 8.344 -3.232 4.726 -1 1 C-0.67 0.67 -0.34 0.34 0 0 Z " fill="#B7FBBF" transform="translate(740,504)"/>
<path d="M0 0 C0.165 0.495 0.165 0.495 1 3 C-3.728 9.112 -9.371 14.364 -14.868 19.777 C-18.788 23.674 -22.23 27.676 -25.496 32.121 C-27.939 35.173 -31.014 37.494 -34 40 C-35.803 41.956 -37.525 43.967 -39.246 45.996 C-40.926 47.916 -42.743 49.712 -44.562 51.5 C-47.045 54.027 -48.974 56.231 -51 59.062 C-54.023 63.03 -57.197 65.797 -61 69 C-62.781 70.935 -64.481 72.926 -66.184 74.93 C-68.665 77.757 -71.345 80.357 -74.027 82.992 C-75.969 84.968 -77.769 87.014 -79.562 89.125 C-82.75 92.841 -86.21 95.906 -90 99 C-88.055 95.11 -86.195 92.837 -83.25 89.688 C-82.261 88.625 -81.273 87.563 -80.254 86.469 C-79.18 85.324 -78.106 84.179 -77 83 C-75.311 81.187 -73.623 79.375 -71.935 77.562 C-69.559 75.013 -67.179 72.468 -64.798 69.923 C-61.286 66.167 -57.778 62.406 -54.271 58.646 C-51.246 55.404 -48.218 52.166 -45.184 48.934 C-44.556 48.265 -43.929 47.596 -43.283 46.906 C-41.543 45.05 -39.801 43.195 -38.059 41.34 C-36.127 39.23 -34.237 37.08 -32.41 34.879 C-30.065 32.078 -27.617 29.547 -25 27 C-17.83 19.981 -10.881 13.168 -5 5 C-4.34 5 -3.68 5 -3 5 C-2.34 3.68 -1.68 2.36 -1 1 C-0.67 0.67 -0.34 0.34 0 0 Z " fill="#B8FBFB" transform="translate(829,190)"/>
<path d="M0 0 C0.66 0 1.32 0 2 0 C0.746 3.314 -0.666 6.309 -2.504 9.336 C-2.992 10.144 -3.48 10.953 -3.983 11.786 C-4.505 12.64 -5.026 13.495 -5.562 14.375 C-6.663 16.193 -7.763 18.01 -8.863 19.828 C-9.403 20.717 -9.943 21.606 -10.499 22.521 C-12.432 25.713 -14.341 28.919 -16.25 32.125 C-20.493 39.197 -24.806 46.225 -29.125 53.25 C-29.794 54.339 -30.464 55.429 -31.153 56.551 C-34.326 61.703 -37.522 66.836 -40.781 71.934 C-43.069 75.514 -45.28 79.115 -47.375 82.812 C-49.998 87.361 -52.765 91.784 -55.625 96.188 C-58.982 101.357 -62.095 106.565 -65 112 C-65.66 111.34 -66.32 110.68 -67 110 C-65.585 107.142 -64.108 104.516 -62.438 101.812 C-61.993 101.069 -61.549 100.326 -61.092 99.561 C-58.951 96.016 -56.73 92.624 -54.312 89.258 C-52.386 86.544 -50.93 84.073 -49.562 81.062 C-47.618 77.028 -45.31 73.648 -42.531 70.117 C-40.198 66.891 -38.436 63.394 -36.578 59.879 C-34.435 55.969 -32.04 52.246 -29.613 48.508 C-28.022 46.034 -26.501 43.529 -25 41 C-18.666 30.388 -12.218 19.854 -5.535 9.457 C-4.179 7.286 -2.925 5.053 -1.688 2.812 C-1.131 1.884 -0.574 0.956 0 0 Z " fill="#B9FBC0" transform="translate(900,240)"/>
<path d="M0 0 C2 1 2 1 3.112 3.993 C4.11 8.494 4.232 12.506 4.209 17.118 C4.208 18.014 4.206 18.91 4.204 19.834 C4.196 22.825 4.174 25.815 4.151 28.806 C4.142 30.955 4.134 33.104 4.127 35.253 C4.105 41.079 4.071 46.904 4.034 52.73 C3.997 58.821 3.971 64.913 3.943 71.004 C3.895 81.225 3.839 91.446 3.779 101.668 C3.708 113.504 3.648 125.34 3.595 137.177 C3.537 149.762 3.473 162.347 3.406 174.932 C3.387 178.568 3.369 182.205 3.352 185.841 C3.325 191.538 3.292 197.235 3.256 202.933 C3.243 205.03 3.233 207.128 3.223 209.226 C3.211 212.075 3.192 214.923 3.172 217.771 C3.163 219.369 3.154 220.968 3.144 222.615 C3.097 223.732 3.049 224.849 3 226 C2.67 226 2.34 226 2 226 C1.89 223.276 1.857 220.549 1.849 217.822 C1.844 216.943 1.84 216.063 1.836 215.156 C1.823 212.179 1.817 209.201 1.811 206.223 C1.803 204.1 1.794 201.976 1.785 199.853 C1.767 195.265 1.752 190.676 1.74 186.088 C1.719 178.831 1.692 171.574 1.663 164.317 C1.603 148.899 1.551 133.481 1.5 118.062 C1.445 101.451 1.388 84.839 1.322 68.227 C1.294 61.016 1.271 53.804 1.251 46.593 C1.237 42.098 1.22 37.602 1.201 33.107 C1.193 31.026 1.187 28.945 1.183 26.863 C1.177 24.016 1.165 21.168 1.151 18.32 C1.146 16.729 1.141 15.137 1.136 13.496 C0.998 8.929 0.567 4.53 0 0 Z " fill="#94F6F5" transform="translate(420,483)"/>
<path d="M0 0 C1.611 -0.003 3.223 -0.005 4.883 -0.008 C8.875 0.125 8.875 0.125 10.875 1.125 C10.545 1.785 10.215 2.445 9.875 3.125 C7.87 2.824 5.871 2.481 3.875 2.125 C-10.553 1.719 -10.553 1.719 -14.5 5.25 C-18.655 12.601 -18.143 23.337 -16 31.312 C-14.125 34.125 -14.125 34.125 -11.645 34.801 C-7.069 35.222 -2.526 35.191 2.062 35.125 C11.471 34.99 11.471 34.99 14.875 36.125 C15.875 38.25 15.875 38.25 15.875 41.125 C13.625 44.562 13.625 44.562 10.875 48.125 C10.421 49.053 9.967 49.981 9.5 50.938 C6.238 57.335 2.074 63.166 -3.125 68.125 C-1.51 63.434 1.055 59.584 3.75 55.438 C7.541 49.518 10.587 43.781 12.875 37.125 C12.38 37.29 12.38 37.29 9.875 38.125 C6.234 38.113 2.635 38.029 -1 37.875 C-1.994 37.848 -2.988 37.821 -4.012 37.793 C-13.285 37.408 -13.285 37.408 -17.125 34.125 C-20.177 30.056 -20.499 29.588 -20.418 24.922 C-20.408 23.942 -20.399 22.962 -20.389 21.953 C-20.376 21.445 -20.376 21.445 -20.312 18.875 C-20.299 17.844 -20.285 16.812 -20.271 15.75 C-20.236 13.208 -20.182 10.666 -20.125 8.125 C-19.465 8.125 -18.805 8.125 -18.125 8.125 C-17.795 6.805 -17.465 5.485 -17.125 4.125 C-11.341 -0.213 -7.053 -0.011 0 0 Z " fill="#B0F7B9" transform="translate(981.125,300.875)"/>
<path d="M0 0 C0.695 0 0.695 0 4.215 0.002 C11.287 0.031 18.31 0.234 25.367 0.699 C34.628 1.291 43.849 1.256 53.125 1.188 C66.091 1.13 79.038 1.215 92 1.625 C92.661 1.645 92.661 1.645 96.008 1.744 C102.789 1.982 102.789 1.982 105 2.188 C105 2.518 105 2.847 105 3.188 C103.506 3.185 102.013 3.183 100.474 3.181 C86.379 3.16 72.284 3.145 58.189 3.136 C50.943 3.13 43.697 3.123 36.451 3.112 C29.455 3.101 22.459 3.095 15.463 3.093 C12.797 3.091 10.132 3.087 7.466 3.082 C3.725 3.074 -0.016 3.074 -3.757 3.074 C-4.853 3.07 -5.948 3.067 -7.077 3.063 C-13.457 3.072 -19.661 3.45 -26 4.188 C-25.67 3.528 -25.34 2.868 -25 2.188 C-16.775 -0.383 -8.548 -0.074 0 0 Z " fill="#BDFDFD" transform="translate(670,177.8125)"/>
<path d="M0 0 C1.496 4.489 -0.466 6.765 -2.438 11 C-3.187 12.645 -3.936 14.291 -4.684 15.938 C-4.877 16.36 -4.877 16.36 -5.855 18.496 C-21.068 51.763 -28.026 83.399 -27 120 C-27.33 120 -27.66 120 -28 120 C-29.421 114.165 -29.192 108.155 -29.188 102.188 C-29.187 101.075 -29.186 99.963 -29.185 98.818 C-29.118 89.74 -28.383 80.98 -27 72 C-26.832 70.778 -26.665 69.556 -26.492 68.297 C-25.586 62.112 -25.586 62.112 -25 60 C-24.34 60 -23.68 60 -23 60 C-22.523 57.648 -22.055 55.293 -21.633 52.93 C-20.777 48.966 -19.376 45.298 -17.934 41.516 C-17 39 -17 39 -16.062 35.562 C-13.397 26.626 -9.221 18.228 -5.25 9.812 C-4.849 8.962 -4.448 8.112 -4.035 7.235 C-1.126 1.126 -1.126 1.126 0 0 Z " fill="#B6FBBE" transform="translate(508,637)"/>
<path d="M0 0 C0 3.977 -1.296 4.717 -4 7.562 C-7.182 10.983 -10.195 14.437 -13.062 18.125 C-16.173 22.083 -19.522 25.572 -23.133 29.07 C-25 31 -25 31 -28 35 C-30.846 38.794 -33.821 41.91 -37.266 45.141 C-39 47 -39 47 -41 51 C-43.448 53.582 -46.014 56.011 -48.59 58.465 C-50.872 60.866 -52.369 63.139 -54 66 C-55.624 67.708 -57.292 69.376 -59 71 C-59.351 71.392 -59.351 71.392 -61.125 73.375 C-61.744 73.911 -62.362 74.447 -63 75 C-63.99 74.67 -64.98 74.34 -66 74 C-64.384 71.959 -62.714 69.959 -61 68 C-60.34 68 -59.68 68 -59 68 C-58.34 66.68 -57.68 65.36 -57 64 C-55.5 62.255 -53.953 60.55 -52.375 58.875 C-48.182 54.36 -44.318 49.708 -40.594 44.801 C-40.068 44.207 -39.542 43.612 -39 43 C-38.34 43 -37.68 43 -37 43 C-36.34 41.68 -35.68 40.36 -35 39 C-34.505 38.835 -34.505 38.835 -32 38 C-31.34 36.68 -30.68 35.36 -30 34 C-28.432 32.159 -26.856 30.325 -25.242 28.523 C-22.531 25.472 -19.894 22.361 -17.25 19.25 C-11.645 12.696 -5.874 6.313 0 0 Z " fill="#B8FBFB" transform="translate(706,324)"/>
<path d="M0 0 C12.146 -0.031 24.292 -0.051 36.438 -0.062 C36.888 -0.063 36.888 -0.063 39.169 -0.065 C71.788 -0.092 104.388 0.245 137 1 C136.688 3.875 136.688 3.875 136 7 C135.01 7.66 134.02 8.32 133 9 C133.33 6.69 133.66 4.38 134 2 C132.381 2.072 130.762 2.144 129.094 2.219 C114.719 2.841 100.41 3.43 86.028 2.64 C74.609 2.019 63.217 1.844 51.782 1.87 C48.814 1.875 45.847 1.87 42.879 1.863 C40.979 1.864 39.079 1.865 37.18 1.867 C36.299 1.865 35.418 1.863 34.51 1.861 C31.096 1.874 28.261 1.913 25 3 C25 2.34 25 1.68 25 1 C16.75 1 8.5 1 0 1 C0 0.67 0 0.34 0 0 Z " fill="#74DFDF" transform="translate(697,181)"/>
<path d="M0 0 C0.33 0.165 0.33 0.165 2 1 C0.926 1.99 -0.148 2.98 -1.254 4 C-2.69 5.333 -4.126 6.666 -5.562 8 C-6.267 8.648 -6.971 9.297 -7.697 9.965 C-11.24 13.263 -14.603 16.603 -17.766 20.27 C-20.165 23.037 -22.377 25.387 -25.188 27.688 C-28.197 30.24 -30.599 32.854 -33 36 C-34.653 37.68 -36.322 39.345 -38 41 C-38.787 41.782 -39.574 42.563 -40.384 43.368 C-41.193 44.171 -42.002 44.974 -42.836 45.801 C-44.682 47.638 -46.529 49.475 -48.375 51.312 C-49.295 52.225 -50.216 53.137 -51.164 54.076 C-55.233 58.131 -59.232 62.185 -62.977 66.543 C-66 70 -66 70 -69 72 C-67.583 67.493 -65.365 65.251 -62 62 C-61.103 61.103 -60.206 60.206 -59.281 59.281 C-51 51 -51 51 -48.344 48.406 C-46 46 -46 46 -43 42 C-42.34 42 -41.68 42 -41 42 C-40.34 40.68 -39.68 39.36 -39 38 C-35.905 33.904 -32.482 30.643 -28.582 27.324 C-22.469 21.822 -16.785 15.843 -11 10 C-7.476 6.446 -4.002 3.024 0 0 Z " fill="#BBFBC4" transform="translate(836,220)"/>
<path d="M0 0 C1.65 0.33 3.3 0.66 5 1 C-1.324 4.162 -7.01 6.402 -14 7.625 C-15.341 7.865 -16.681 8.105 -18.062 8.352 C-23.306 9.215 -28.526 9.951 -33.812 10.5 C-38 11 -38 11 -40 12 C-42.498 12.099 -45 12.131 -47.5 12.133 C-49.028 12.134 -50.555 12.135 -52.129 12.137 C-53.736 12.133 -55.344 12.129 -57 12.125 C-57.788 12.127 -57.788 12.127 -61.777 12.137 C-77.834 12.123 -77.834 12.123 -85 11 C-85.33 10.34 -85.66 9.68 -86 9 C-84.809 9.021 -83.617 9.042 -82.389 9.063 C-31.007 9.887 -31.007 9.887 -6.395 2.579 C-4 2 -4 2 0 2 C0 1.34 0 0.68 0 0 Z " fill="#ADF7B6" transform="translate(640,815)"/>
<path d="M0 0 C0.66 0.33 1.32 0.66 2 1 C1.31 1.739 0.621 2.477 -0.09 3.238 C-4.664 8.176 -9.168 13.118 -13.375 18.375 C-16.906 22.766 -20.643 26.892 -24.5 31 C-29.178 35.983 -33.599 41.07 -37.875 46.398 C-42.909 52.562 -48.281 58.465 -54 64 C-52.387 58.838 -49.384 55.144 -46 51 C-45.505 50.835 -45.505 50.835 -43 50 C-42.34 48.68 -41.68 47.36 -41 46 C-38.931 43.499 -36.84 41.052 -34.688 38.625 C-29.625 32.869 -24.601 27.135 -20 21 C-19.34 21 -18.68 21 -18 21 C-17.835 20.505 -17.835 20.505 -17 18 C-16.34 18 -15.68 18 -15 18 C-14.34 16.68 -13.68 15.36 -13 14 C-10.875 11.503 -8.731 9.086 -6.5 6.688 C-5.906 6.029 -5.311 5.371 -4.699 4.693 C-3.195 3.069 -1.604 1.526 0 0 Z " fill="#BFFCC7" transform="translate(733,327)"/>
<path d="M0 0 C6.564 0.901 6.564 0.901 9.324 1.528 C12.47 2.083 15.431 2.12 18.626 2.114 C19.947 2.113 21.268 2.113 22.629 2.113 C24.047 2.108 25.465 2.103 26.926 2.098 C28.384 2.096 29.842 2.095 31.344 2.093 C36 2.088 40.656 2.075 45.312 2.062 C48.469 2.057 51.626 2.053 54.783 2.049 C62.522 2.038 70.261 2.021 78 2 C77.67 2.66 77.34 3.32 77 4 C73.757 5.081 71.355 5.146 67.943 5.177 C67.319 5.183 67.319 5.183 64.159 5.216 C63.482 5.22 63.482 5.22 60.059 5.238 C58.666 5.246 57.273 5.254 55.839 5.263 C52.886 5.277 49.932 5.287 46.979 5.295 C42.48 5.312 37.981 5.356 33.482 5.4 C30.612 5.411 27.742 5.419 24.871 5.426 C23.532 5.443 22.193 5.461 20.814 5.479 C12.894 5.461 7.116 4.559 0 1 C0 0.67 0 0.34 0 0 Z " fill="#A2EEAC" transform="translate(640,778)"/>
<path d="M0 0 C0.165 0.33 0.165 0.33 1 2 C-0.336 4.512 -0.336 4.512 -2.375 7.688 C-5.347 12.387 -8.279 17.098 -11.125 21.875 C-20.59 37.682 -30.18 53.411 -40 69 C-41 66 -41 66 -39.996 63.871 C-39.482 63.068 -38.967 62.265 -38.438 61.438 C-37.877 60.545 -37.316 59.653 -36.738 58.734 C-36.165 57.832 -35.591 56.93 -35 56 C-34.037 54.399 -33.078 52.795 -32.125 51.188 C-22.755 35.579 -22.755 35.579 -18.82 29.797 C-17 27 -17 27 -16 24 C-15.34 24 -14.68 24 -14 24 C-13.67 22.68 -13.34 21.36 -13 20 C-10.876 15.22 -8.07 11.221 -5 7 C-4.443 6.072 -3.886 5.144 -3.312 4.188 C-2 2 -2 2 0 0 Z " fill="#B6FABE" transform="translate(832,353)"/>
<path d="M0 0 C1.294 -0.001 2.588 -0.003 3.922 -0.004 C4.599 -0.002 4.599 -0.002 8.023 0.008 C9.385 0.004 10.746 0 12.148 -0.004 C13.44 -0.003 14.732 -0.001 16.062 0 C17.253 0.001 18.444 0.002 19.67 0.003 C22.398 0.133 22.398 0.133 23.398 1.133 C23.499 3.412 23.529 5.695 23.531 7.977 C23.532 8.672 23.532 8.672 23.535 12.191 C23.531 13.657 23.527 15.123 23.523 16.633 C23.525 17.366 23.525 17.366 23.535 21.074 C23.534 22.465 23.533 23.856 23.531 25.289 C23.53 26.576 23.529 27.863 23.528 29.189 C23.398 32.133 23.398 32.133 22.398 33.133 C20.046 33.233 17.691 33.264 15.336 33.266 C13.9 33.267 12.464 33.268 10.984 33.27 C9.471 33.266 7.958 33.262 6.398 33.258 C5.642 33.26 5.642 33.26 1.812 33.27 C1.094 33.269 1.094 33.269 -2.539 33.266 C-3.204 33.265 -3.204 33.265 -6.566 33.262 C-9.602 33.133 -9.602 33.133 -10.602 32.133 C-10.702 30.011 -10.732 27.886 -10.734 25.762 C-10.736 24.466 -10.737 23.169 -10.738 21.834 C-10.734 20.468 -10.731 19.102 -10.727 17.695 C-10.73 16.333 -10.734 14.972 -10.738 13.568 C-10.737 12.271 -10.736 10.973 -10.734 9.637 C-10.733 8.439 -10.732 7.241 -10.731 6.006 C-10.602 3.133 -10.602 3.133 -9.602 1.133 C-6.202 -0 -3.583 0.003 0 0 Z M-9.602 5.133 C-10.185 7.85 -10.185 7.85 -10.125 10.922 C-10.113 12.028 -10.102 13.134 -10.09 14.273 C-10.052 15.423 -10.015 16.573 -9.977 17.758 C-9.962 18.915 -9.948 20.073 -9.934 21.266 C-9.785 29.767 -9.785 29.767 -8.602 32.133 C-5.965 32.392 -5.965 32.392 -2.484 32.398 C-1.861 32.4 -1.861 32.4 1.293 32.406 C2.607 32.399 3.92 32.391 5.273 32.383 C6.579 32.391 7.885 32.398 9.23 32.406 C9.855 32.405 9.855 32.405 13.016 32.398 C13.591 32.397 13.591 32.397 16.503 32.392 C19.398 32.133 19.398 32.133 22.398 30.133 C22.739 27.244 22.739 27.244 22.691 23.594 C22.682 22.292 22.672 20.99 22.662 19.648 C22.637 18.282 22.612 16.916 22.586 15.508 C22.572 14.134 22.559 12.76 22.545 11.344 C22.509 7.94 22.46 4.536 22.398 1.133 C18.003 1.017 13.608 0.946 9.211 0.883 C7.965 0.849 6.719 0.816 5.436 0.781 C4.233 0.768 3.031 0.755 1.793 0.742 C0.688 0.721 -0.417 0.7 -1.555 0.679 C-5.388 1.25 -6.998 2.28 -9.602 5.133 Z " fill="#70D87D" transform="translate(1072.6015625,165.8671875)"/>
<path d="M0 0 C0.66 0.33 1.32 0.66 2 1 C1.553 1.574 1.553 1.574 -0.711 4.48 C-6.22 11.557 -11.729 18.634 -17.188 25.75 C-32.475 45.639 -32.475 45.639 -40 54 C-40.66 53.34 -41.32 52.68 -42 52 C-41.505 51.835 -41.505 51.835 -39 51 C-38.326 49.336 -37.661 47.669 -37 46 C-35.603 44.322 -34.138 42.699 -32.625 41.125 C-29.931 38.23 -27.904 35.831 -25.938 32.375 C-24.167 29.29 -22.653 27.544 -20.125 25.125 C-16.705 21.844 -14.241 18.508 -11.711 14.523 C-8.235 9.397 -4.342 4.42 0 0 Z " fill="#B3FCFB" transform="translate(549,302)"/>
<path d="M0 0 C1 4 1 4 -0.66 7.102 C-1.453 8.264 -2.246 9.427 -3.062 10.625 C-6.428 15.65 -9.663 20.691 -12.711 25.914 C-14.016 28.025 -15.511 30.015 -17 32 C-17.454 32.908 -17.908 33.815 -18.375 34.75 C-20.828 39.656 -23.62 44.286 -27.062 48.562 C-29 51 -29 51 -31 54.625 C-33 58 -33 58 -37 61 C-35.31 56.011 -32.456 51.773 -29.625 47.375 C-28.535 45.665 -27.445 43.956 -26.355 42.246 C-25.798 41.375 -25.24 40.503 -24.666 39.605 C-22.077 35.557 -19.505 31.499 -16.938 27.438 C-16.449 26.666 -15.961 25.895 -15.458 25.1 C-10.214 16.789 -5.099 8.401 0 0 Z " fill="#BCFBC4" transform="translate(975,372)"/>
<path d="M0 0 C2.453 0.219 2.453 0.219 6.703 0.219 C10.106 0.219 13.137 0.473 16.453 1.219 C16.453 1.549 16.453 1.879 16.453 2.219 C15.805 2.211 15.805 2.211 12.525 2.171 C7.696 2.117 2.868 2.082 -1.961 2.054 C-4.047 2.039 -6.134 2.018 -8.22 1.992 C-11.226 1.956 -14.232 1.939 -17.238 1.926 C-18.165 1.91 -19.091 1.895 -20.045 1.879 C-27.271 1.877 -32.22 2.99 -37.484 8.031 C-41.914 13.578 -45.154 20.01 -48.547 26.219 C-49.547 22.219 -49.547 22.219 -47.484 18.531 C-46.512 17.089 -45.532 15.652 -44.547 14.219 C-44.053 13.434 -43.559 12.649 -43.051 11.84 C-39.686 6.535 -36.735 2.281 -30.547 0.219 C-20.292 -0.767 -10.24 -1.131 0 0 Z " fill="#BBFBC3" transform="translate(951.546875,213.78125)"/>
<path d="M0 0 C1 3 1 3 0.066 5.129 C-3.262 10.515 -6.848 15.485 -10.867 20.375 C-15.563 26.155 -19.926 32.202 -24.359 38.184 C-28.407 43.624 -32.501 48.925 -37 54 C-37.165 53.505 -37.165 53.505 -38 51 C-36.715 49.62 -35.366 48.3 -34 47 C-31.581 43.743 -29.222 40.456 -26.891 37.137 C-25.64 35.39 -24.325 33.691 -23 32 C-22.34 32 -21.68 32 -21 32 C-20.67 30.68 -20.34 29.36 -20 28 C-18.274 25.434 -16.472 22.918 -14.625 20.438 C-14.136 19.777 -14.136 19.777 -11.664 16.434 C-9 13 -9 13 -6 10 C-5.08 8.485 -4.206 6.941 -3.375 5.375 C-1 1 -1 1 0 0 Z " fill="#B6FCFB" transform="translate(629,195)"/>
<path d="M0 0 C0.66 0 1.32 0 2 0 C0.006 3.988 -2.222 6.961 -5 10.438 C-11.483 18.607 -17.906 26.816 -24.117 35.195 C-24.648 35.91 -25.18 36.625 -25.727 37.362 C-27.234 39.395 -28.736 41.432 -30.238 43.469 C-32.661 46.567 -35.149 49.299 -38 52 C-36.55 47.892 -34.602 44.497 -32 41 C-31.34 41 -30.68 41 -30 41 C-29.67 40.01 -29.34 39.02 -29 38 C-28.67 37.01 -28.34 36.02 -28 35 C-27.34 35 -26.68 35 -26 35 C-25.34 33.68 -24.68 32.36 -24 31 C-20.37 25.626 -16.51 20.462 -12.188 15.625 C-9.685 12.78 -7.909 10.215 -6 7 C-5.34 7 -4.68 7 -4 7 C-3.67 5.68 -3.34 4.36 -3 3 C-2.01 2.01 -1.02 1.02 0 0 Z " fill="#BAFBC2" transform="translate(637,439)"/>
<path d="M0 0 C0.66 0.33 1.32 0.66 2 1 C2.335 6.575 1.676 11.936 0.475 17.379 C-0.369 22.032 -0.185 26.721 -0.188 31.438 C-0.2 32.462 -0.212 33.486 -0.225 34.541 C-0.235 39.839 0.092 44.001 2 49 C2 50.65 2 52.3 2 54 C-2.985 46.522 -3.455 39.629 -3.312 30.938 C-3.303 29.836 -3.294 28.734 -3.285 27.599 C-3.145 18.375 -2.94 8.82 0 0 Z " fill="#AAF6B1" transform="translate(633,525)"/>
<path d="M0 0 C0.33 0.165 0.33 0.165 2 1 C2.449 3.328 2.449 3.328 2.688 6.25 C2.774 7.204 2.86 8.158 2.949 9.141 C2.999 11.947 2.564 14.265 2 17 C2.677 24.677 2.677 24.677 4 26 C6.455 26.211 8.915 26.369 11.375 26.5 C18.672 26.891 18.672 26.891 22 28 C21.884 32.984 19.905 36.064 17 40 C16.67 39.34 16.34 38.68 16 38 C17 36 18 34 19 32 C18.67 31.34 18.34 30.68 18 30 C14.178 29.681 10.373 29.62 6.539 29.539 C3 29 3 29 0 25 C-0.341 22.251 -0.341 22.251 -0.293 19.141 C-0.283 18.026 -0.274 16.911 -0.264 15.762 C-0.239 14.603 -0.213 13.444 -0.188 12.25 C-0.174 11.076 -0.16 9.901 -0.146 8.691 C-0.111 5.794 -0.062 2.897 0 0 Z " fill="#ADF5B6" transform="translate(1002,266)"/>
<path d="M0 0 C0.165 0.33 0.165 0.33 1 2 C-2.106 8.213 -5.77 13.51 -10 19 C-12.582 22.749 -15.005 26.59 -17.438 30.438 C-20.158 34.731 -23.03 38.875 -26 43 C-26.536 43.928 -27.072 44.856 -27.625 45.812 C-29 48 -29 48 -32 50 C-30.488 45.741 -28.342 42.216 -25.875 38.438 C-25.064 37.194 -24.253 35.95 -23.418 34.668 C-20.71 30.561 -17.997 26.458 -15.258 22.371 C-13.455 19.68 -11.659 16.984 -9.867 14.285 C-9.322 13.464 -8.776 12.644 -8.214 11.798 C-7.125 10.158 -6.036 8.518 -4.948 6.878 C-1.112 1.112 -1.112 1.112 0 0 Z " fill="#B7FABF" transform="translate(688,425)"/>
<path d="M0 0 C0 3.89 -1.682 6.25 -3.59 9.551 C-4.869 11.772 -6.064 14.04 -7.25 16.312 C-9.319 20.066 -11.75 23.364 -14.375 26.75 C-18.389 31.951 -21.432 37.284 -24.297 43.188 C-26.153 46.253 -28.093 47.943 -31 50 C-29.6 46.156 -27.797 42.922 -25.562 39.5 C-23.852 36.87 -22.149 34.248 -20.535 31.559 C-18.711 28.518 -16.797 25.542 -14.875 22.562 C-12.393 18.714 -9.914 14.865 -7.445 11.008 C-7.042 10.377 -7.042 10.377 -5 7.188 C-4.629 6.607 -4.629 6.607 -2.75 3.668 C-1 1 -1 1 0 0 Z " fill="#B5FABE" transform="translate(893,504)"/>
<path d="M0 0 C0.33 0.66 0.66 1.32 1 2 C-1.438 3.625 -1.438 3.625 -4 5 C-2 1 -2 1 0 0 Z M-5 5 C-4.67 5.66 -4.34 6.32 -4 7 C-7.102 12.076 -10.113 14.775 -15 18 C-16.884 19.968 -18.641 22.007 -20.387 24.098 C-21.838 25.809 -23.413 27.413 -25 29 C-25.66 29 -26.32 29 -27 29 C-25.078 25.156 -23.44 23.207 -20.43 20.234 C-19.982 19.79 -19.982 19.79 -17.715 17.539 C-16.778 16.619 -15.841 15.698 -14.875 14.75 C-13.93 13.814 -12.985 12.878 -12.012 11.914 C-9.679 9.605 -7.342 7.3 -5 5 Z M-31 32 C-30.67 32.66 -30.34 33.32 -30 34 C-31.293 35.875 -31.293 35.875 -33.188 38 C-33.8 38.701 -34.412 39.402 -35.043 40.125 C-37 42 -37 42 -41 44 C-39.166 40.332 -37.749 38.532 -34.875 35.75 C-34.151 35.044 -33.426 34.337 -32.68 33.609 C-32.125 33.078 -31.571 32.547 -31 32 Z " fill="#42C752" transform="translate(803,255)"/>
<path d="M0 0 C0 5.806 -5.636 10.609 -9.551 14.602 C-11.286 16.303 -13.023 18.002 -14.762 19.699 C-17.249 22.256 -19.166 24.944 -21 28 C-21.66 28.66 -22.32 29.32 -23 30 C-23.454 30.557 -23.454 30.557 -25.75 33.375 C-28.678 36.641 -31.26 38.774 -35 41 C-32.906 36.813 -30.653 34.317 -27.438 30.938 C-23.643 26.891 -19.966 22.831 -16.5 18.5 C-11.319 12.041 -5.667 6.032 0 0 Z " fill="#44CA58" transform="translate(736,326)"/>
</svg>
